<svg width="202" height="53" viewBox="0 0 202 53" fill="none" xmlns="http://www.w3.org/2000/svg">
<path d="M38.9475 49.8391C38.4856 49.8391 38.0884 49.7329 37.7558 49.5204C37.4279 49.308 37.1784 49.0123 37.0075 48.6336C36.8366 48.2548 36.7512 47.8252 36.7512 47.3449C36.7512 46.8645 36.8366 46.4349 37.0075 46.0561C37.1831 45.6728 37.4348 45.3748 37.7628 45.1624C38.0953 44.9453 38.4903 44.8367 38.9475 44.8367C39.4002 44.8367 39.7905 44.9453 40.1185 45.1624C40.4464 45.3748 40.6959 45.6705 40.8668 46.0492C41.0377 46.428 41.1231 46.8622 41.1231 47.3518C41.1231 47.8368 41.0377 48.2664 40.8668 48.6405C40.6959 49.0146 40.4464 49.308 40.1185 49.5204C39.7905 49.7329 39.4002 49.8391 38.9475 49.8391ZM38.9406 49.2849C39.2593 49.2849 39.5365 49.204 39.772 49.0424C40.0076 48.8761 40.1878 48.6451 40.3125 48.3495C40.4372 48.0539 40.4995 47.7167 40.4995 47.3379C40.4995 46.9592 40.4372 46.622 40.3125 46.3264C40.1878 46.0307 40.0076 45.7998 39.772 45.6335C39.5365 45.4672 39.2593 45.3841 38.9406 45.3841C38.6219 45.3841 38.3448 45.4695 38.1092 45.6404C37.8736 45.8067 37.6935 46.0377 37.5688 46.3333C37.444 46.6289 37.3817 46.9638 37.3817 47.3379C37.3817 47.7167 37.444 48.0539 37.5688 48.3495C37.6935 48.6405 37.8736 48.8691 38.1092 49.0354C38.3448 49.2017 38.6219 49.2849 38.9406 49.2849ZM44.1256 44.9406H44.7977L47.3959 48.8345H47.4236V44.9406H48.0125V49.7906H47.3335L44.7423 45.9522H44.7145V49.7906H44.1256V44.9406ZM54.0735 49.2502V49.7906H51.212V44.9406H51.8148L51.8078 49.2502H54.0735ZM57.0133 44.9406H57.616V49.7906H57.0133V44.9406ZM60.8378 44.9406H61.5099L64.1081 48.8345H64.1358V44.9406H64.7248V49.7906H64.0458L61.4545 45.9522H61.4267V49.7906H60.8378V44.9406ZM68.527 45.4811V47.0746H70.6263V47.5596H68.527V49.2502H70.9104V49.7906H67.9242V44.9406H70.9104V45.4811H68.527ZM77.6921 44.9406H79.4658C79.9 44.9406 80.2788 45.04 80.6021 45.2386C80.9301 45.4326 81.1818 45.712 81.3573 46.0769C81.5375 46.4372 81.6275 46.8645 81.6275 47.3587C81.6275 47.853 81.5375 48.2848 81.3573 48.6544C81.1818 49.0193 80.9301 49.301 80.6021 49.4996C80.2742 49.6936 79.8931 49.7906 79.4589 49.7906H77.6921V44.9406ZM79.3758 49.2364C79.8654 49.2364 80.258 49.077 80.5536 48.7583C80.8492 48.435 80.997 47.9684 80.997 47.3587C80.997 46.749 80.8492 46.2848 80.5536 45.9661C80.2626 45.6427 79.87 45.4811 79.3758 45.4811H78.2741V49.2364H79.3758ZM86.0239 47.8576H85.1578V49.7906H84.562V44.9406H86.211C86.6036 44.9406 86.9246 45.0122 87.174 45.1554C87.4281 45.2986 87.6105 45.4811 87.7214 45.7028C87.8322 45.9245 87.8877 46.1578 87.8877 46.4026C87.8877 46.7398 87.7861 47.0423 87.5828 47.3102C87.3842 47.5781 87.0724 47.749 86.6475 47.8229L87.9292 49.7906H87.271L86.0239 47.8576ZM85.1578 47.3449H86.1347C86.4627 47.3449 86.7398 47.2733 86.9662 47.1301C87.1925 46.9869 87.3057 46.7444 87.3057 46.4026C87.3057 46.0654 87.1925 45.8275 86.9662 45.6889C86.7398 45.5504 86.4627 45.4811 86.1347 45.4811H85.1578V47.3449ZM91.006 44.9406H91.6088V49.7906H91.006V44.9406ZM94.3606 44.9406H94.9703L96.4392 49.1879H96.4807L97.9496 44.9406H98.5524L96.8757 49.7906H96.0442L94.3606 44.9406ZM101.369 44.9406H101.972V49.7906H101.369V44.9406ZM105.194 44.9406H105.866L108.464 48.8345H108.492V44.9406H109.081V49.7906H108.402L105.811 45.9522H105.783V49.7906H105.194V44.9406ZM114.187 49.8391C113.711 49.8391 113.316 49.7191 113.002 49.4789C112.688 49.2341 112.455 48.9223 112.302 48.5435C112.154 48.1647 112.081 47.7652 112.081 47.3449C112.081 46.9199 112.157 46.5181 112.309 46.1393C112.462 45.7559 112.699 45.4441 113.023 45.2039C113.346 44.9591 113.75 44.8367 114.235 44.8367C114.776 44.8367 115.212 44.9845 115.545 45.2801C115.882 45.5711 116.115 45.9384 116.245 46.3818H115.614C115.522 46.0677 115.36 45.8229 115.129 45.6474C114.898 45.4718 114.6 45.3841 114.235 45.3841C113.75 45.3841 113.372 45.5596 113.099 45.9106C112.826 46.2617 112.69 46.7421 112.69 47.3518C112.69 47.9707 112.829 48.4557 113.106 48.8068C113.388 49.1578 113.773 49.3334 114.263 49.3334C114.554 49.3334 114.803 49.2733 115.011 49.1532C115.224 49.0285 115.385 48.8599 115.496 48.6474C115.612 48.435 115.672 48.1948 115.676 47.9269L115.683 47.7329H114.325V47.2825H116.245V49.7906H115.767V48.9869H115.711C115.683 49.0562 115.621 49.1555 115.524 49.2849C115.427 49.4096 115.265 49.5343 115.039 49.659C114.817 49.7791 114.533 49.8391 114.187 49.8391ZM124.616 49.8461C124.242 49.8461 123.921 49.7699 123.653 49.6174C123.39 49.4604 123.191 49.2595 123.057 49.0146C122.923 48.7698 122.856 48.5135 122.856 48.2456V48.2109H123.515V48.2456C123.515 48.4072 123.552 48.5689 123.626 48.7306C123.704 48.8922 123.826 49.0285 123.993 49.1394C124.159 49.2456 124.371 49.2987 124.63 49.2987C124.935 49.2987 125.187 49.2202 125.385 49.0631C125.584 48.9061 125.683 48.6936 125.683 48.4257C125.683 48.204 125.609 48.0285 125.462 47.8991C125.318 47.7652 125.134 47.6751 124.907 47.6289L124.201 47.4973C123.388 47.3171 122.981 46.8899 122.981 46.2155C122.981 45.9384 123.048 45.6959 123.182 45.488C123.316 45.2801 123.501 45.1208 123.736 45.0099C123.977 44.8945 124.254 44.8367 124.568 44.8367C124.923 44.8367 125.228 44.9083 125.482 45.0515C125.736 45.1947 125.928 45.3818 126.057 45.6127C126.187 45.8391 126.251 46.0746 126.251 46.3194V46.3471H125.593V46.3264C125.593 46.1878 125.559 46.0469 125.489 45.9037C125.425 45.7559 125.314 45.6289 125.157 45.5226C125.004 45.4164 124.801 45.3633 124.547 45.3633C124.256 45.3633 124.023 45.4441 123.847 45.6058C123.676 45.7675 123.591 45.9684 123.591 46.2086C123.591 46.4118 123.658 46.5781 123.792 46.7074C123.926 46.8368 124.108 46.9245 124.339 46.9707L124.977 47.0954C125.868 47.2756 126.314 47.7121 126.314 48.4049C126.314 48.6867 126.242 48.9361 126.099 49.1532C125.96 49.3703 125.762 49.5412 125.503 49.6659C125.244 49.786 124.949 49.8461 124.616 49.8461ZM131.409 49.8391C130.956 49.8391 130.566 49.7329 130.238 49.5204C129.91 49.3033 129.658 49.0054 129.482 48.6266C129.312 48.2479 129.226 47.8183 129.226 47.3379C129.226 46.8576 129.312 46.428 129.482 46.0492C129.658 45.6705 129.91 45.3748 130.238 45.1624C130.566 44.9453 130.956 44.8367 131.409 44.8367C131.954 44.8367 132.404 44.9915 132.76 45.3009C133.115 45.6058 133.353 46.0192 133.473 46.5411H132.884C132.787 46.1855 132.61 45.9037 132.351 45.6959C132.092 45.4834 131.78 45.3771 131.416 45.3771C130.912 45.3771 130.526 45.555 130.258 45.9106C129.991 46.2617 129.857 46.7351 129.857 47.331C129.857 47.9315 129.991 48.4096 130.258 48.7652C130.526 49.1163 130.912 49.2918 131.416 49.2918C131.762 49.2918 132.06 49.1994 132.309 49.0146C132.559 48.8253 132.737 48.5735 132.843 48.2594H133.432C133.302 48.7398 133.062 49.1232 132.711 49.4096C132.365 49.696 131.931 49.8391 131.409 49.8391ZM140.076 44.9406V49.7906H139.473V47.5943H137.006V49.7906H136.41V44.9406H137.006V47.1093H139.473V44.9406H140.076ZM145.256 49.8391C144.794 49.8391 144.397 49.7329 144.064 49.5204C143.737 49.308 143.487 49.0123 143.316 48.6336C143.145 48.2548 143.06 47.8252 143.06 47.3449C143.06 46.8645 143.145 46.4349 143.316 46.0561C143.492 45.6728 143.743 45.3748 144.071 45.1624C144.404 44.9453 144.799 44.8367 145.256 44.8367C145.709 44.8367 146.099 44.9453 146.427 45.1624C146.755 45.3748 147.004 45.6705 147.175 46.0492C147.346 46.428 147.432 46.8622 147.432 47.3518C147.432 47.8368 147.346 48.2664 147.175 48.6405C147.004 49.0146 146.755 49.308 146.427 49.5204C146.099 49.7329 145.709 49.8391 145.256 49.8391ZM145.249 49.2849C145.568 49.2849 145.845 49.204 146.081 49.0424C146.316 48.8761 146.496 48.6451 146.621 48.3495C146.746 48.0539 146.808 47.7167 146.808 47.3379C146.808 46.9592 146.746 46.622 146.621 46.3264C146.496 46.0307 146.316 45.7998 146.081 45.6335C145.845 45.4672 145.568 45.3841 145.249 45.3841C144.931 45.3841 144.653 45.4695 144.418 45.6404C144.182 45.8067 144.002 46.0377 143.877 46.3333C143.753 46.6289 143.69 46.9638 143.69 47.3379C143.69 47.7167 143.753 48.0539 143.877 48.3495C144.002 48.6405 144.182 48.8691 144.418 49.0354C144.653 49.2017 144.931 49.2849 145.249 49.2849ZM152.485 49.8391C152.023 49.8391 151.625 49.7329 151.293 49.5204C150.965 49.308 150.716 49.0123 150.545 48.6336C150.374 48.2548 150.288 47.8252 150.288 47.3449C150.288 46.8645 150.374 46.4349 150.545 46.0561C150.72 45.6728 150.972 45.3748 151.3 45.1624C151.632 44.9453 152.027 44.8367 152.485 44.8367C152.937 44.8367 153.328 44.9453 153.656 45.1624C153.984 45.3748 154.233 45.6705 154.404 46.0492C154.575 46.428 154.66 46.8622 154.66 47.3518C154.66 47.8368 154.575 48.2664 154.404 48.6405C154.233 49.0146 153.984 49.308 153.656 49.5204C153.328 49.7329 152.937 49.8391 152.485 49.8391ZM152.478 49.2849C152.796 49.2849 153.074 49.204 153.309 49.0424C153.545 48.8761 153.725 48.6451 153.85 48.3495C153.974 48.0539 154.037 47.7167 154.037 47.3379C154.037 46.9592 153.974 46.622 153.85 46.3264C153.725 46.0307 153.545 45.7998 153.309 45.6335C153.074 45.4672 152.796 45.3841 152.478 45.3841C152.159 45.3841 151.882 45.4695 151.646 45.6404C151.411 45.8067 151.231 46.0377 151.106 46.3333C150.981 46.6289 150.919 46.9638 150.919 47.3379C150.919 47.7167 150.981 48.0539 151.106 48.3495C151.231 48.6405 151.411 48.8691 151.646 49.0354C151.882 49.2017 152.159 49.2849 152.478 49.2849ZM160.524 49.2502V49.7906H157.663V44.9406H158.266L158.259 49.2502H160.524Z" fill="white"/>
<path fill-rule="evenodd" clip-rule="evenodd" d="M81.5999 14.0595C83.9164 15.2433 83.9063 15.1987 82.4818 17.9532C81.2382 20.3591 80.8995 20.4571 78.9404 18.975C76.9936 17.5022 74.7419 17.655 72.5104 19.4109C69.8286 21.5199 69.8286 25.843 72.5104 27.952C76.4596 31.0589 78.8215 29.793 83.3515 22.1431C85.5995 18.3467 87.7892 15.636 89.5624 14.4558C96.7721 9.65852 106.643 14.9494 106.635 23.608C106.63 29.9486 102.024 34.4815 95.581 34.4865C92.2673 34.4894 87.9045 32.75 87.9045 31.4264C87.9045 30.9516 89.4868 28.1019 90.5762 26.6162C90.7002 26.4468 91.2038 26.8482 91.6945 27.5075C93.2933 29.6525 96.7764 29.8023 99.0756 27.8252C101.845 25.4424 101.878 21.9493 99.1527 19.6047C95.1343 16.1476 92.4251 17.5937 87.7064 25.7148C83.7903 32.4539 80.7821 34.7408 75.9264 34.6674C69.7919 34.5744 64.8476 29.7692 64.8476 23.8991C64.8476 15.0596 73.5516 9.94674 81.5999 14.0595Z" fill="white"/>
<path d="M35.4179 35.4284C32.4061 35.4284 30.3295 34.5407 29.1882 32.7653C28.0786 30.99 27.5238 28.5171 27.5238 25.3468V13.1252H32.6597V24.0628C32.6597 25.8699 32.7548 27.2807 32.9451 28.2952C33.167 29.278 33.5791 30.0072 34.1815 30.4827C34.8156 30.9583 35.7508 31.196 36.9872 31.196C37.8749 31.196 38.7309 30.9424 39.5552 30.4352C40.3795 29.9279 41.0452 29.2463 41.5525 28.3903C42.0915 27.5026 42.3609 26.5357 42.3609 25.4894V13.1252H47.4493V34.9529H43.2645L42.6938 31.7667C41.9012 33.0031 40.9026 33.9225 39.6979 34.5249C38.5248 35.1272 37.0982 35.4284 35.4179 35.4284Z" fill="white"/>
<path d="M53.5679 17.31H50.437V13.1252H53.5679V4.2324L58.7514 4.23239V13.1252L62.686 13.1252V17.31L58.7514 17.31V34.9529H53.5679V17.31Z" fill="white"/>
<path d="M108.797 13.1251H113.838L113.885 17.1198C114.488 15.7882 115.439 14.6945 116.739 13.8385C118.038 12.9825 119.56 12.5545 121.304 12.5545C123.555 12.5545 125.283 13.03 126.487 13.9811C127.692 14.9005 128.501 16.2004 128.913 17.8806C129.325 19.5609 129.531 21.7484 129.531 24.4432V34.9528H124.395V24.5859C124.395 21.8277 124.125 19.8462 123.587 18.6415C123.048 17.4051 121.938 16.7869 120.258 16.7869C119.307 16.7869 118.34 17.0881 117.357 17.6904C116.374 18.2611 115.55 19.1012 114.884 20.2108C114.25 21.3204 113.933 22.6203 113.933 24.1103V34.9528H108.797V13.1251Z" fill="white"/>
<path d="M133.963 0H139.051V34.9528H133.963V0Z" fill="white"/>
<path d="M144.024 13.1251H149.35V34.9528H144.024V13.1251ZM146.64 9.03543C145.657 9.03543 144.833 8.70254 144.167 8.03677C143.501 7.37101 143.168 6.54672 143.168 5.56392C143.168 4.67623 143.501 3.91535 144.167 3.28129C144.833 2.64722 145.657 2.33019 146.64 2.33019C147.591 2.33019 148.399 2.64722 149.065 3.28129C149.731 3.91535 150.064 4.67623 150.064 5.56392C150.064 6.54672 149.731 7.37101 149.065 8.03677C148.431 8.70254 147.623 9.03543 146.64 9.03543Z" fill="white"/>
<path d="M153.846 13.1251H158.887L158.934 17.1198C159.537 15.7882 160.488 14.6945 161.788 13.8385C163.087 12.9825 164.609 12.5545 166.353 12.5545C168.604 12.5545 170.332 13.03 171.536 13.9811C172.741 14.9005 173.549 16.2004 173.962 17.8806C174.374 19.5609 174.58 21.7484 174.58 24.4432V34.9528H169.444V24.5859C169.444 21.8277 169.174 19.8462 168.635 18.6415C168.097 17.4051 166.987 16.7869 165.307 16.7869C164.356 16.7869 163.389 17.0881 162.406 17.6904C161.423 18.2611 160.599 19.1012 159.933 20.2108C159.299 21.3204 158.982 22.6203 158.982 24.1103V34.9528H153.846V13.1251Z" fill="white"/>
<path d="M18.6675 13.1252V15.5087C20.921 17.552 22.3364 20.5031 22.3364 23.7847C22.3364 27.0431 20.9409 29.9757 18.715 32.0173V34.9529H23.5656V13.1252H18.6675Z" fill="white"/>
<path fill-rule="evenodd" clip-rule="evenodd" d="M18.715 32.0173C20.9409 29.9757 22.3364 27.0431 22.3364 23.7847C22.3364 20.5031 20.921 17.552 18.6675 15.5087C18.5384 15.3917 18.4066 15.2777 18.2722 15.1668C16.3417 13.5735 13.8667 12.6165 11.1682 12.6165C5.00017 12.6165 0 17.6167 0 23.7847C0 29.9527 5.00017 34.9529 11.1682 34.9529C14.0778 34.9529 16.7274 33.8403 18.715 32.0173ZM11.1682 29.9092C14.5507 29.9092 17.2927 27.1671 17.2927 23.7847C17.2927 20.4022 14.5507 17.6602 11.1682 17.6602C7.78573 17.6602 5.0437 20.4022 5.0437 23.7847C5.0437 27.1671 7.78573 29.9092 11.1682 29.9092Z" fill="white"/>
<path d="M189.859 35.6734C183.293 35.6734 177.97 30.3506 177.97 23.7847C177.97 17.2187 183.293 11.8959 189.859 11.8959C196.425 11.8959 201.748 17.2187 201.748 23.7847C201.748 24.65 201.655 25.4937 201.48 26.3065H196.225C196.534 25.5261 196.704 24.6752 196.704 23.7847C196.704 23.1612 196.621 22.5573 196.465 21.9833C195.674 19.0768 193.016 16.9396 189.859 16.9396C186.702 16.9396 184.044 19.0768 183.254 21.9833C183.098 22.5573 183.014 23.1612 183.014 23.7847C183.014 24.6752 183.184 25.5261 183.494 26.3065C184.498 28.8389 186.969 30.6297 189.859 30.6297C191.828 30.6297 193.602 29.7986 194.851 28.4681H200.79C198.972 32.7054 194.762 35.6734 189.859 35.6734Z" fill="white"/>
<path d="M196.225 26.3065C196.534 25.5261 196.704 24.6752 196.704 23.7847C196.704 23.1612 196.621 22.5573 196.465 21.9833H183.254C183.098 22.5573 183.014 23.1612 183.014 23.7847C183.014 24.6752 183.184 25.5261 183.494 26.3065H196.225Z" fill="white"/>
</svg>
