<svg width="249" height="124" viewBox="0 0 249 124" fill="none" xmlns="http://www.w3.org/2000/svg">
<path d="M15.7015 36.1601C16.3794 34.2353 18.2296 33 20.2704 33H229.73C231.77 33 233.621 34.2353 234.299 36.1601C240.695 54.3225 240.446 75.1333 234.272 93.4077C233.609 95.3702 231.74 96.6429 229.668 96.6429H20.3319C18.2605 96.6429 16.3905 95.3702 15.7275 93.4077C9.55365 75.1333 9.30487 54.3225 15.7015 36.1601Z" fill="#B0BA3D"/>
<path d="M15.7015 33.1601C16.3794 31.2353 18.2296 30 20.2704 30H229.73C231.77 30 233.621 31.2353 234.299 33.1601C240.695 51.3225 240.446 72.1333 234.272 90.4077C233.609 92.3702 231.74 93.6429 229.668 93.6429H20.3319C18.2605 93.6429 16.3905 92.3702 15.7275 90.4077C9.55365 72.1333 9.30487 51.3225 15.7015 33.1601Z" fill="#D9E454"/>
<g filter="url(#filter0_f_341_24)">
<rect x="30" y="30" width="188.989" height="63.6429" fill="url(#paint0_linear_341_24)" fill-opacity="0.6"/>
</g>
<path d="M72.548 57.2L68.194 65.278C67.8487 65.922 67.4427 66.4027 66.976 66.72C66.5093 67.0373 66.0007 67.196 65.45 67.196C65.0207 67.196 64.582 67.098 64.134 66.902L64.498 65.782C64.8433 65.9033 65.1513 65.964 65.422 65.964C66.038 65.964 66.5467 65.6373 66.948 64.984L67.172 64.634L63.224 57.2H64.722L67.9 63.416L71.162 57.2H72.548ZM82.8577 57.2V67H81.4717V63.122C80.4357 63.5233 79.479 63.724 78.6017 63.724C77.407 63.724 76.4784 63.4347 75.8157 62.856C75.1624 62.2773 74.8357 61.4513 74.8357 60.378V57.2H76.2077V60.224C76.2077 60.952 76.427 61.512 76.8657 61.904C77.3137 62.296 77.9437 62.492 78.7557 62.492C79.661 62.492 80.5664 62.2867 81.4717 61.876V57.2H82.8577ZM93.6843 64.55H88.4763L87.3983 67H85.9563L90.3943 57.2H91.7803L96.2323 67H94.7623L93.6843 64.55ZM93.1943 63.43L91.0803 58.628L88.9663 63.43H93.1943ZM103.569 67.112C102.589 67.112 101.702 66.8973 100.909 66.468C100.125 66.0293 99.5089 65.432 99.0609 64.676C98.6129 63.9107 98.3889 63.052 98.3889 62.1C98.3889 61.148 98.6129 60.294 99.0609 59.538C99.5089 58.7727 100.13 58.1753 100.923 57.746C101.716 57.3073 102.603 57.088 103.583 57.088C104.348 57.088 105.048 57.2187 105.683 57.48C106.318 57.732 106.859 58.11 107.307 58.614L106.397 59.496C105.66 58.7213 104.74 58.334 103.639 58.334C102.911 58.334 102.253 58.4973 101.665 58.824C101.077 59.1507 100.615 59.6033 100.279 60.182C99.9523 60.7513 99.7889 61.3907 99.7889 62.1C99.7889 62.8093 99.9523 63.4533 100.279 64.032C100.615 64.6013 101.077 65.0493 101.665 65.376C102.253 65.7027 102.911 65.866 103.639 65.866C104.731 65.866 105.65 65.474 106.397 64.69L107.307 65.572C106.859 66.076 106.313 66.4587 105.669 66.72C105.034 66.9813 104.334 67.112 103.569 67.112ZM117.26 58.418H113.9V67H112.528V58.418H109.182V57.2H117.26V58.418ZM126.466 61.918C127.129 62.0767 127.628 62.3613 127.964 62.772C128.309 63.1733 128.482 63.6913 128.482 64.326C128.482 65.1753 128.169 65.8333 127.544 66.3C126.928 66.7667 126.027 67 124.842 67H120.362V57.2H124.576C125.649 57.2 126.485 57.4193 127.082 57.858C127.689 58.2873 127.992 58.908 127.992 59.72C127.992 60.252 127.857 60.7047 127.586 61.078C127.325 61.4513 126.951 61.7313 126.466 61.918ZM121.748 61.512H124.478C125.159 61.512 125.677 61.3767 126.032 61.106C126.396 60.8353 126.578 60.4387 126.578 59.916C126.578 59.3933 126.396 58.9967 126.032 58.726C125.668 58.446 125.15 58.306 124.478 58.306H121.748V61.512ZM124.814 65.894C126.317 65.894 127.068 65.334 127.068 64.214C127.068 63.654 126.877 63.2433 126.494 62.982C126.121 62.7113 125.561 62.576 124.814 62.576H121.748V65.894H124.814ZM136.631 67.112C135.642 67.112 134.75 66.8973 133.957 66.468C133.164 66.0293 132.538 65.4273 132.081 64.662C131.633 63.8967 131.409 63.0427 131.409 62.1C131.409 61.1573 131.633 60.3033 132.081 59.538C132.538 58.7727 133.164 58.1753 133.957 57.746C134.75 57.3073 135.642 57.088 136.631 57.088C137.611 57.088 138.498 57.3073 139.291 57.746C140.084 58.1753 140.705 58.7727 141.153 59.538C141.601 60.294 141.825 61.148 141.825 62.1C141.825 63.052 141.601 63.9107 141.153 64.676C140.705 65.432 140.084 66.0293 139.291 66.468C138.498 66.8973 137.611 67.112 136.631 67.112ZM136.631 65.866C137.35 65.866 137.994 65.7027 138.563 65.376C139.142 65.0493 139.594 64.6013 139.921 64.032C140.257 63.4533 140.425 62.8093 140.425 62.1C140.425 61.3907 140.257 60.7513 139.921 60.182C139.594 59.6033 139.142 59.1507 138.563 58.824C137.994 58.4973 137.35 58.334 136.631 58.334C135.912 58.334 135.259 58.4973 134.671 58.824C134.092 59.1507 133.635 59.6033 133.299 60.182C132.972 60.7513 132.809 61.3907 132.809 62.1C132.809 62.8093 132.972 63.4533 133.299 64.032C133.635 64.6013 134.092 65.0493 134.671 65.376C135.259 65.7027 135.912 65.866 136.631 65.866ZM151.592 61.918C152.255 62.0767 152.754 62.3613 153.09 62.772C153.435 63.1733 153.608 63.6913 153.608 64.326C153.608 65.1753 153.295 65.8333 152.67 66.3C152.054 66.7667 151.153 67 149.968 67H145.488V57.2H149.702C150.775 57.2 151.611 57.4193 152.208 57.858C152.815 58.2873 153.118 58.908 153.118 59.72C153.118 60.252 152.983 60.7047 152.712 61.078C152.451 61.4513 152.077 61.7313 151.592 61.918ZM146.874 61.512H149.604C150.285 61.512 150.803 61.3767 151.158 61.106C151.522 60.8353 151.704 60.4387 151.704 59.916C151.704 59.3933 151.522 58.9967 151.158 58.726C150.794 58.446 150.276 58.306 149.604 58.306H146.874V61.512ZM149.94 65.894C151.443 65.894 152.194 65.334 152.194 64.214C152.194 63.654 152.003 63.2433 151.62 62.982C151.247 62.7113 150.687 62.576 149.94 62.576H146.874V65.894H149.94ZM163.717 64.55H158.509L157.431 67H155.989L160.427 57.2H161.813L166.265 67H164.795L163.717 64.55ZM163.227 63.43L161.113 58.628L158.999 63.43H163.227ZM175.598 58.418H172.238V67H170.866V58.418H167.52V57.2H175.598V58.418ZM182.998 60.616C184.164 60.616 185.056 60.8773 185.672 61.4C186.297 61.9227 186.61 62.6927 186.61 63.71C186.61 64.7833 186.274 65.6 185.602 66.16C184.939 66.72 183.987 67 182.746 67H178.7V57.2H180.086V60.616H182.998ZM182.69 65.894C183.502 65.894 184.122 65.712 184.552 65.348C184.99 64.9747 185.21 64.438 185.21 63.738C185.21 62.394 184.37 61.722 182.69 61.722H180.086V65.894H182.69Z" fill="#515151"/>
<defs>
<filter id="filter0_f_341_24" x="0" y="0" width="248.99" height="123.643" filterUnits="userSpaceOnUse" color-interpolation-filters="sRGB">
<feFlood flood-opacity="0" result="BackgroundImageFix"/>
<feBlend mode="normal" in="SourceGraphic" in2="BackgroundImageFix" result="shape"/>
<feGaussianBlur stdDeviation="15" result="effect1_foregroundBlur_341_24"/>
</filter>
<linearGradient id="paint0_linear_341_24" x1="30" y1="62.2143" x2="218.989" y2="62.2143" gradientUnits="userSpaceOnUse">
<stop stop-color="white" stop-opacity="0"/>
<stop offset="0.483333" stop-color="white"/>
<stop offset="1" stop-color="white" stop-opacity="0"/>
</linearGradient>
</defs>
</svg>
